<svg width="68" height="68" viewBox="0 0 68 68" fill="none" xmlns="http://www.w3.org/2000/svg">
<g filter="url(#filter0_d)">
<rect x="4.5" y="0.5" width="59" height="59" rx="29.5" fill="url(#paint0_linear)" stroke="#5CBB2C"/>
<path fill-rule="evenodd" clip-rule="evenodd" d="M17.5 26.5V19.5H50.5V26.5H17.5ZM16 19C16 18.4477 16.4477 18 17 18H51C51.5523 18 52 18.4477 52 19V27C52 27.5523 51.5523 28 51 28H17C16.4477 28 16 27.5523 16 27V19ZM19.5 31V30.5H48.5V31C48.5 39.0081 42.0081 45.5 34 45.5C25.9919 45.5 19.5 39.0081 19.5 31ZM18 29.5625C18 29.2518 18.2518 29 18.5625 29H49.4375C49.7482 29 50 29.2518 50 29.5625V31C50 39.8366 42.8366 47 34 47C25.1634 47 18 39.8366 18 31V29.5625ZM34 35.6C32.1222 35.6 30.6 37.1222 30.6 39C30.6 40.7703 31.953 42.2246 33.6813 42.3853C33.5705 42.2935 33.5 42.155 33.5 42C33.5 41.7239 33.7239 41.5 34 41.5C34.197 41.5 34.392 41.4612 34.574 41.3858C34.756 41.3104 34.9214 41.1999 35.0607 41.0607C35.1999 40.9214 35.3104 40.756 35.3858 40.574C35.4612 40.392 35.5 40.197 35.5 40C35.5 39.7239 35.7239 39.5 36 39.5C36.2761 39.5 36.5 39.7239 36.5 40C36.5 40.3283 36.4353 40.6534 36.3097 40.9567C36.1841 41.26 35.9999 41.5356 35.7678 41.7678C35.6162 41.9193 35.4462 42.0504 35.262 42.1581C36.5149 41.6569 37.4 40.4318 37.4 39C37.4 37.1222 35.8778 35.6 34 35.6ZM29.4 39C29.4 36.4595 31.4595 34.4 34 34.4C36.5405 34.4 38.6 36.4595 38.6 39C38.6 41.5405 36.5405 43.6 34 43.6C31.4595 43.6 29.4 41.5405 29.4 39Z" fill="white"/>
</g>
<defs>
<filter id="filter0_d" x="0" y="0" width="68" height="68" filterUnits="userSpaceOnUse" color-interpolation-filters="sRGB">
<feFlood flood-opacity="0" result="BackgroundImageFix"/>
<feColorMatrix in="SourceAlpha" type="matrix" values="0 0 0 0 0 0 0 0 0 0 0 0 0 0 0 0 0 0 127 0"/>
<feOffset dy="4"/>
<feGaussianBlur stdDeviation="2"/>
<feColorMatrix type="matrix" values="0 0 0 0 0.360784 0 0 0 0 0.733333 0 0 0 0 0.172549 0 0 0 0.25 0"/>
<feBlend mode="normal" in2="BackgroundImageFix" result="effect1_dropShadow"/>
<feBlend mode="normal" in="SourceGraphic" in2="effect1_dropShadow" result="shape"/>
</filter>
<linearGradient id="paint0_linear" x1="13" y1="53.25" x2="54.25" y2="9.375" gradientUnits="userSpaceOnUse">
<stop stop-color="#5CBB2C"/>
<stop offset="1" stop-color="#6FDD3F"/>
</linearGradient>
</defs>
</svg>
