<svg width="81" height="80" viewBox="0 0 81 80" fill="none" xmlns="http://www.w3.org/2000/svg">
<path d="M40.5 0L50.1413 10.327L64.0114 7.63932L65.7413 21.6611L78.5423 27.6393L71.7 40L78.5423 52.3607L65.7413 58.3389L64.0114 72.3607L50.1413 69.673L40.5 80L30.8587 69.673L16.9886 72.3607L15.2587 58.3389L2.45774 52.3607L9.3 40L2.45774 27.6393L15.2587 21.6611L16.9886 7.63932L30.8587 10.327L40.5 0Z" fill="#0069FF"/>
<path d="M29.2545 39.8228C27.7759 38.5777 25.5679 38.767 24.3228 40.2455C23.0777 41.7241 23.267 43.9321 24.7455 45.1772L29.2545 39.8228ZM36.5 50.5L34.2455 53.1772C34.9591 53.7781 35.883 54.0692 36.8121 53.9861C37.7412 53.9029 38.5987 53.4522 39.1942 52.7342L36.5 50.5ZM56.1942 32.2342C57.4281 30.7462 57.2221 28.5397 55.7342 27.3058C54.2462 26.0719 52.0397 26.2779 50.8058 27.7658L56.1942 32.2342ZM24.7455 45.1772L34.2455 53.1772L38.7545 47.8228L29.2545 39.8228L24.7455 45.1772ZM39.1942 52.7342L56.1942 32.2342L50.8058 27.7658L33.8058 48.2658L39.1942 52.7342Z" fill="white"/>
</svg>
