<svg width="68" height="68" viewBox="0 0 68 68" fill="none" xmlns="http://www.w3.org/2000/svg">
<g filter="url(#filter0_d)">
<rect x="4.5" y="0.5" width="59" height="59" rx="29.5" fill="url(#paint0_linear)" stroke="#F51418"/>
<path fill-rule="evenodd" clip-rule="evenodd" d="M29.7177 18.4348L28.3081 18.9478L28.8212 20.3574L30.2307 19.8443L46.5 13.9228L47.9095 13.4098L47.3965 12.0002L45.9869 12.5133L29.7177 18.4348ZM50 28.4999H18C17.7239 28.4999 17.5 28.7238 17.5 28.9999V44.9999C17.5 45.276 17.7239 45.4999 18 45.4999H23V44.4999V42.9999V40.9999C23 38.7908 24.7909 36.9999 27 36.9999H41C43.2091 36.9999 45 38.7908 45 40.9999V42.9999V44.4999V45.4999H50C50.2761 45.4999 50.5 45.276 50.5 44.9999V28.9999C50.5 28.7238 50.2761 28.4999 50 28.4999ZM45 46.9999H50C51.1046 46.9999 52 46.1045 52 44.9999V28.9999V23.9999C52 22.8953 51.1046 21.9999 50 21.9999H28.386C27.5523 21.9999 26.8061 21.4828 26.5133 20.7022L25.9867 19.2977C25.6939 18.517 24.9477 17.9999 24.114 17.9999H18C16.8954 17.9999 16 18.8953 16 19.9999V28.9999V44.9999C16 46.1045 16.8954 46.9999 18 46.9999H23H24.5H43.5H45ZM43.5 42.9999V40.9999C43.5 39.6192 42.3807 38.4999 41 38.4999H27C25.6193 38.4999 24.5 39.6192 24.5 40.9999V42.9999H43.5ZM24.5 44.4999V45.4999H43.5V44.4999H24.5ZM50.5 27.0629C50.3402 27.0218 50.1726 26.9999 50 26.9999H18C17.8274 26.9999 17.6598 27.0218 17.5 27.0629V19.9999C17.5 19.7238 17.7239 19.4999 18 19.4999H24.114C24.3224 19.4999 24.509 19.6292 24.5822 19.8243L25.1088 21.2288C25.6211 22.5949 26.927 23.4999 28.386 23.4999H50C50.2761 23.4999 50.5 23.7238 50.5 23.9999V27.0629ZM41 30.9999H41.5H42.5H43V31.4999V32.4999V32.9999H42.5H41.5H41V32.4999V31.4999V30.9999ZM45.5 30.9999H45V31.4999V32.4999V32.9999H45.5H46.5H47V32.4999V31.4999V30.9999H46.5H45.5Z" fill="white"/>
</g>
<defs>
<filter id="filter0_d" x="0" y="0" width="68" height="68" filterUnits="userSpaceOnUse" color-interpolation-filters="sRGB">
<feFlood flood-opacity="0" result="BackgroundImageFix"/>
<feColorMatrix in="SourceAlpha" type="matrix" values="0 0 0 0 0 0 0 0 0 0 0 0 0 0 0 0 0 0 127 0"/>
<feOffset dy="4"/>
<feGaussianBlur stdDeviation="2"/>
<feColorMatrix type="matrix" values="0 0 0 0 0.960784 0 0 0 0 0.0784314 0 0 0 0 0.0941176 0 0 0 0.25 0"/>
<feBlend mode="normal" in2="BackgroundImageFix" result="effect1_dropShadow"/>
<feBlend mode="normal" in="SourceGraphic" in2="effect1_dropShadow" result="shape"/>
</filter>
<linearGradient id="paint0_linear" x1="13" y1="53.25" x2="54.25" y2="9.375" gradientUnits="userSpaceOnUse">
<stop stop-color="#F51418"/>
<stop offset="1" stop-color="#F54A4B"/>
</linearGradient>
</defs>
</svg>
