<svg width="540" height="525" viewBox="0 0 540 525" fill="none" xmlns="http://www.w3.org/2000/svg">
<g filter="url(#filter0_d)">
<path d="M236.027 78.4042C281.331 70.2355 328.049 79.4411 366.867 104.186C405.686 128.93 433.752 167.396 445.471 211.914" stroke="#339DFF"/>
<path d="M191.639 58.7791C231.902 43.2843 275.908 40.3205 317.885 50.2763C359.862 60.2322 397.85 82.6429 426.866 114.569C455.882 146.495 474.571 186.445 480.482 229.18C486.393 271.914 479.249 315.438 459.989 354.041C440.728 392.644 410.249 424.525 372.551 445.501C334.852 466.477 291.694 475.57 248.737 471.585C205.779 467.601 165.03 450.727 131.832 423.175C98.634 395.623 74.5387 358.681 62.7063 317.194" stroke="#339DFF"/>
<path d="M64 246.421L184.608 181L266 225.12L139.938 294L64 246.421Z" fill="#1C65C5"/>
<path d="M135.985 302.421L48.9908 247.873L187.714 172.569L280.955 223.15L135.985 302.421Z" stroke="#1B91FF"/>
<path d="M86 223.401V193.313L143.461 228.726L238.014 177.222V207.311L143.147 259.342L86 223.401Z" fill="#1B91FF"/>
<path d="M86 223.089V193L143.461 228.413V228.941V259.03L143.147 259.029L86 223.089Z" fill="#1B91FF"/>
<path d="M101 220.203L128 237.009V232.297L101 215.491V220.203Z" fill="white"/>
<path d="M143.147 229.253V259.342L238.014 207.311L142.961 229.225L143.147 229.253Z" fill="black" fill-opacity="0.08"/>
<path d="M143.147 229.254V259.342L238.014 207.311L142.961 229.226L143.147 229.254Z" fill="black" fill-opacity="0.08"/>
<path d="M86 193.313L176.762 143.895L238.014 177.222L143.147 229.254L86 193.313Z" fill="#1149BB"/>
<path d="M86 188.954V158.865L143.461 194.278L238.014 142.775V172.863L143.147 224.895L86 188.954Z" fill="#1B91FF"/>
<path d="M86 189.089V159L143.461 194.413V194.941V225.03L143.147 225.029L86 189.089Z" fill="#1B91FF"/>
<path d="M143.147 194.806V224.895L238.014 172.863L142.961 194.778L143.147 194.806Z" fill="black" fill-opacity="0.08"/>
<path d="M143.147 194.806V224.895L238.014 172.864L142.961 194.778L143.147 194.806Z" fill="black" fill-opacity="0.08"/>
<path d="M86 158.866L176.762 109.447L238.014 142.775L143.147 194.806L86 158.866Z" fill="#1149BB"/>
<path d="M101 186.203L128 203.009V198.297L101 181.491V186.203Z" fill="white"/>
<path d="M86 154.507V124.418L143.461 159.831L238.014 108.328V138.416L143.147 190.447L86 154.507Z" fill="#1B91FF"/>
<path d="M86 154.089V124L143.461 159.413L143.147 159.941V190.03L86 154.089Z" fill="#1B91FF"/>
<path d="M143.147 160.359V190.447L238.014 138.416L142.961 160.331L143.147 160.359Z" fill="black" fill-opacity="0.08"/>
<path d="M86 124.418L176.762 75L238.014 108.328L143.147 160.359L86 124.418Z" fill="#1B91FF"/>
<path d="M86 124.418L176.762 75L238.014 108.328L143.147 160.359L86 124.418Z" fill="url(#paint0_linear)"/>
<path d="M101 151.202L128 168.008V163.297L101 146.491V151.202Z" fill="white"/>
<path d="M169 317.421L289.608 252L371 296.12L244.938 365L169 317.421Z" fill="#1C65C5"/>
<path d="M240.985 373.421L153.991 318.873L292.714 243.569L385.955 294.15L240.985 373.421Z" stroke="#1B91FF"/>
<path d="M191 294.401V264.313L248.461 299.726L343.014 248.222V278.311L248.147 330.342L191 294.401Z" fill="#1B91FF"/>
<path d="M191 294.089V264L248.461 299.413V299.941V330.03L248.147 330.029L191 294.089Z" fill="#1B91FF"/>
<path d="M206 291.203L233 308.009V303.297L206 286.491V291.203Z" fill="white"/>
<path d="M248.147 300.253V330.342L343.014 278.311L247.961 300.225L248.147 300.253Z" fill="black" fill-opacity="0.08"/>
<path d="M248.147 300.254V330.342L343.014 278.311L247.961 300.226L248.147 300.254Z" fill="black" fill-opacity="0.08"/>
<path d="M191 264.313L281.762 214.895L343.014 248.222L248.147 300.254L191 264.313Z" fill="#1149BB"/>
<path d="M191 259.954V229.865L248.461 265.278L343.014 213.775V243.863L248.147 295.895L191 259.954Z" fill="#1B91FF"/>
<path d="M191 260.089V230L248.461 265.413V265.941V296.03L248.147 296.029L191 260.089Z" fill="#1B91FF"/>
<path d="M248.147 265.806V295.895L343.014 243.863L247.961 265.778L248.147 265.806Z" fill="black" fill-opacity="0.08"/>
<path d="M248.147 265.806V295.895L343.014 243.864L247.961 265.778L248.147 265.806Z" fill="black" fill-opacity="0.08"/>
<path d="M191 229.866L281.762 180.447L343.014 213.775L248.147 265.806L191 229.866Z" fill="#1149BB"/>
<path d="M206 257.203L233 274.009V269.297L206 252.491V257.203Z" fill="white"/>
<path d="M191 225.507V195.418L248.461 230.831L343.014 179.328V209.416L248.147 261.447L191 225.507Z" fill="#1B91FF"/>
<path d="M191 225.089V195L248.461 230.413L248.147 230.941V261.03L191 225.089Z" fill="#1B91FF"/>
<path d="M248.147 231.359V261.447L343.014 209.416L247.961 231.331L248.147 231.359Z" fill="black" fill-opacity="0.08"/>
<path d="M191 195.418L281.762 146L343.014 179.328L248.147 231.359L191 195.418Z" fill="#1B91FF"/>
<path d="M191 195.418L281.762 146L343.014 179.328L248.147 231.359L191 195.418Z" fill="url(#paint1_linear)"/>
<path d="M206 222.202L233 239.008V234.297L206 217.491V222.202Z" fill="white"/>
<path d="M274 388.421L394.608 323L476 367.12L349.938 436L274 388.421Z" fill="#1C65C5"/>
<path d="M345.985 444.421L258.991 389.873L397.714 314.569L490.955 365.15L345.985 444.421Z" stroke="#1B91FF"/>
<path d="M296 365.401V335.313L353.461 370.726L448.014 319.222V349.311L353.147 401.342L296 365.401Z" fill="#1B91FF"/>
<path d="M296 365.089V335L353.461 370.413V370.941V401.03L353.147 401.029L296 365.089Z" fill="#1B91FF"/>
<path d="M311 362.203L338 379.009V374.297L311 357.491V362.203Z" fill="white"/>
<path d="M353.147 371.253V401.342L448.014 349.311L352.961 371.225L353.147 371.253Z" fill="black" fill-opacity="0.08"/>
<path d="M353.147 371.254V401.342L448.014 349.311L352.961 371.226L353.147 371.254Z" fill="black" fill-opacity="0.08"/>
<path d="M296 335.313L386.762 285.895L448.014 319.222L353.147 371.254L296 335.313Z" fill="#1149BB"/>
<path d="M296 330.954V300.865L353.461 336.278L448.014 284.775V314.863L353.147 366.895L296 330.954Z" fill="#1B91FF"/>
<path d="M296 331.089V301L353.461 336.413V336.941V367.03L353.147 367.029L296 331.089Z" fill="#1B91FF"/>
<path d="M353.147 336.806V366.895L448.014 314.863L352.961 336.778L353.147 336.806Z" fill="black" fill-opacity="0.08"/>
<path d="M353.147 336.806V366.895L448.014 314.864L352.961 336.778L353.147 336.806Z" fill="black" fill-opacity="0.08"/>
<path d="M296 300.866L386.762 251.447L448.014 284.775L353.147 336.806L296 300.866Z" fill="#1149BB"/>
<path d="M311 328.203L338 345.009V340.297L311 323.491V328.203Z" fill="white"/>
<path d="M296 296.507V266.418L353.461 301.831L448.014 250.328V280.416L353.147 332.447L296 296.507Z" fill="#1B91FF"/>
<path d="M296 296.089V266L353.461 301.413L353.147 301.941V332.03L296 296.089Z" fill="#1B91FF"/>
<path d="M353.147 302.359V332.447L448.014 280.416L352.961 302.331L353.147 302.359Z" fill="black" fill-opacity="0.08"/>
<path d="M296 266.418L386.762 217L448.014 250.328L353.147 302.359L296 266.418Z" fill="#1B91FF"/>
<path d="M296 266.418L386.762 217L448.014 250.328L353.147 302.359L296 266.418Z" fill="url(#paint2_linear)"/>
<path d="M311 293.202L338 310.008V305.297L311 288.491V293.202Z" fill="white"/>
<path d="M104 331.578V328.578H114.343V331.578" fill="white"/>
<path d="M213 405.578V402.578H223.343V405.578" fill="white"/>
<path d="M90 273.5L53 293.5L158 364.5" stroke="#1B91FF"/>
<path d="M195 344.5L158 364.5L263 435.5" stroke="#1B91FF"/>
<path d="M299.5 415.5L263 435.5" stroke="#1B91FF"/>
<path d="M109.166 334.156C112.02 334.156 114.333 333.002 114.333 331.578C114.333 330.154 112.02 329 109.166 329C106.313 329 104 330.154 104 331.578C104 333.002 106.313 334.156 109.166 334.156Z" fill="white"/>
<path d="M109.178 331.156C112.031 331.156 114.344 330.002 114.344 328.578C114.344 327.154 112.031 326 109.178 326C106.325 326 104.012 327.154 104.012 328.578C104.012 330.002 106.325 331.156 109.178 331.156Z" fill="#339DFF"/>
<path d="M218.166 408.156C221.02 408.156 223.333 407.002 223.333 405.578C223.333 404.154 221.02 403 218.166 403C215.313 403 213 404.154 213 405.578C213 407.002 215.313 408.156 218.166 408.156Z" fill="white"/>
<path d="M218.178 405.156C221.031 405.156 223.344 404.002 223.344 402.578C223.344 401.154 221.031 400 218.178 400C215.325 400 213.012 401.154 213.012 402.578C213.012 404.002 215.325 405.156 218.178 405.156Z" fill="#339DFF"/>
</g>
<defs>
<filter id="filter0_d" x="-26" y="-25" width="592" height="578" filterUnits="userSpaceOnUse" color-interpolation-filters="sRGB">
<feFlood flood-opacity="0" result="BackgroundImageFix"/>
<feColorMatrix in="SourceAlpha" type="matrix" values="0 0 0 0 0 0 0 0 0 0 0 0 0 0 0 0 0 0 127 0"/>
<feOffset dy="4"/>
<feGaussianBlur stdDeviation="24"/>
<feColorMatrix type="matrix" values="0 0 0 0 0.0568791 0 0 0 0 0.045625 0 0 0 0 0.608333 0 0 0 0.21 0"/>
<feBlend mode="normal" in2="BackgroundImageFix" result="effect1_dropShadow"/>
<feBlend mode="normal" in="SourceGraphic" in2="effect1_dropShadow" result="shape"/>
</filter>
<linearGradient id="paint0_linear" x1="82" y1="163" x2="207" y2="91.5" gradientUnits="userSpaceOnUse">
<stop stop-color="#0753C7"/>
<stop offset="1" stop-color="#2E92FF"/>
</linearGradient>
<linearGradient id="paint1_linear" x1="187" y1="234" x2="312" y2="162.5" gradientUnits="userSpaceOnUse">
<stop stop-color="#0753C7"/>
<stop offset="1" stop-color="#2E92FF"/>
</linearGradient>
<linearGradient id="paint2_linear" x1="292" y1="305" x2="417" y2="233.5" gradientUnits="userSpaceOnUse">
<stop stop-color="#0753C7"/>
<stop offset="1" stop-color="#2E92FF"/>
</linearGradient>
</defs>
</svg>
