<svg width="68" height="68" viewBox="0 0 68 68" fill="none" xmlns="http://www.w3.org/2000/svg">
<g filter="url(#filter0_d)">
<rect x="4.5" y="0.5" width="59" height="59" rx="29.5" fill="url(#paint0_linear)" stroke="#5945FF"/>
<path d="M24.9458 25.7441L34.5 13.2356L44.0542 25.7441C47.1351 29.7777 48.0381 34.7931 46.5461 39.4559C44.8468 44.7667 39.7347 47.4868 34.5 47.4868C29.2653 47.4868 24.1532 44.7667 22.4539 39.4559C20.9619 34.7931 21.8649 29.7777 24.9458 25.7441Z" stroke="white" stroke-width="1.5"/>
<path d="M26.1506 37.0986C25.7634 37.2169 25.543 37.6278 25.6885 38.0056C26.1803 39.2827 26.9227 40.4514 27.8743 41.4416C28.826 42.4318 29.9643 43.22 31.2208 43.7622C31.5925 43.9226 32.0119 43.7186 32.1455 43.3364V43.3364C32.2791 42.9542 32.0759 42.5389 31.7061 42.3741C30.6662 41.9107 29.7235 41.2498 28.9315 40.4256C28.1394 39.6015 27.5164 38.6333 27.0947 37.5758C26.9448 37.1997 26.5378 36.9803 26.1506 37.0986V37.0986Z" fill="white"/>
</g>
<defs>
<filter id="filter0_d" x="0" y="0" width="68" height="68" filterUnits="userSpaceOnUse" color-interpolation-filters="sRGB">
<feFlood flood-opacity="0" result="BackgroundImageFix"/>
<feColorMatrix in="SourceAlpha" type="matrix" values="0 0 0 0 0 0 0 0 0 0 0 0 0 0 0 0 0 0 127 0"/>
<feOffset dy="4"/>
<feGaussianBlur stdDeviation="2"/>
<feColorMatrix type="matrix" values="0 0 0 0 0.34902 0 0 0 0 0.270588 0 0 0 0 1 0 0 0 0.25 0"/>
<feBlend mode="normal" in2="BackgroundImageFix" result="effect1_dropShadow"/>
<feBlend mode="normal" in="SourceGraphic" in2="effect1_dropShadow" result="shape"/>
</filter>
<linearGradient id="paint0_linear" x1="13" y1="53.25" x2="54.25" y2="9.375" gradientUnits="userSpaceOnUse">
<stop stop-color="#5945FF"/>
<stop offset="1" stop-color="#7A7BFE"/>
</linearGradient>
</defs>
</svg>
