<svg width="30" height="30" viewBox="0 0 30 30" fill="none" xmlns="http://www.w3.org/2000/svg">
<rect width="30" height="30" rx="15" fill="#0069FF"/>
<path fill-rule="evenodd" clip-rule="evenodd" d="M11.9767 7.71075C12.7587 7.67475 13.008 7.66675 15 7.66675C16.992 7.66675 17.2414 7.67541 18.0227 7.71075C18.804 7.74608 19.3374 7.87075 19.804 8.05141C20.2927 8.23608 20.736 8.52475 21.1027 8.89808C21.476 9.26408 21.764 9.70675 21.948 10.1961C22.1294 10.6627 22.2534 11.1961 22.2894 11.9761C22.3254 12.7594 22.3334 13.0087 22.3334 15.0001C22.3334 16.9921 22.3247 17.2414 22.2894 18.0234C22.254 18.8034 22.1294 19.3367 21.948 19.8034C21.764 20.2928 21.4755 20.7362 21.1027 21.1027C20.736 21.4761 20.2927 21.7641 19.804 21.9481C19.3374 22.1294 18.804 22.2534 18.024 22.2894C17.2414 22.3254 16.992 22.3334 15 22.3334C13.008 22.3334 12.7587 22.3247 11.9767 22.2894C11.1967 22.2541 10.6634 22.1294 10.1967 21.9481C9.7073 21.7641 9.2639 21.4756 8.89735 21.1027C8.52427 20.7365 8.23556 20.2933 8.05135 19.8041C7.87069 19.3374 7.74669 18.8041 7.71069 18.0241C7.67469 17.2407 7.66669 16.9914 7.66669 15.0001C7.66669 13.0081 7.67535 12.7587 7.71069 11.9774C7.74602 11.1961 7.87069 10.6627 8.05135 10.1961C8.23584 9.7068 8.52477 9.26362 8.89802 8.89741C9.26405 8.52442 9.707 8.23571 10.196 8.05141C10.6627 7.87075 11.196 7.74675 11.976 7.71075H11.9767ZM17.9634 9.03075C17.19 8.99541 16.958 8.98808 15 8.98808C13.042 8.98808 12.81 8.99541 12.0367 9.03075C11.3214 9.06341 10.9334 9.18275 10.6747 9.28341C10.3327 9.41675 10.088 9.57475 9.83135 9.83141C9.58805 10.0681 9.40081 10.3563 9.28335 10.6747C9.18269 10.9334 9.06335 11.3214 9.03069 12.0367C8.99535 12.8101 8.98802 13.0421 8.98802 15.0001C8.98802 16.9581 8.99535 17.1901 9.03069 17.9634C9.06335 18.6787 9.18269 19.0667 9.28335 19.3254C9.40069 19.6434 9.58802 19.9321 9.83135 20.1687C10.068 20.4121 10.3567 20.5994 10.6747 20.7167C10.9334 20.8174 11.3214 20.9367 12.0367 20.9694C12.81 21.0047 13.0414 21.0121 15 21.0121C16.9587 21.0121 17.19 21.0047 17.9634 20.9694C18.6787 20.9367 19.0667 20.8174 19.3254 20.7167C19.6674 20.5834 19.912 20.4254 20.1687 20.1687C20.412 19.9321 20.5994 19.6434 20.7167 19.3254C20.8174 19.0667 20.9367 18.6787 20.9694 17.9634C21.0047 17.1901 21.012 16.9581 21.012 15.0001C21.012 13.0421 21.0047 12.8101 20.9694 12.0367C20.9367 11.3214 20.8174 10.9334 20.7167 10.6747C20.5834 10.3327 20.4254 10.0881 20.1687 9.83141C19.932 9.58813 19.6438 9.40089 19.3254 9.28341C19.0667 9.18275 18.6787 9.06341 17.9634 9.03075ZM14.0634 17.2607C14.5865 17.4785 15.1689 17.5079 15.7113 17.3439C16.2537 17.1799 16.7223 16.8327 17.0371 16.3616C17.3519 15.8905 17.4934 15.3247 17.4374 14.7608C17.3814 14.197 17.1314 13.6701 16.73 13.2701C16.4742 13.0144 16.1648 12.8186 15.8242 12.6968C15.4837 12.5751 15.1203 12.5303 14.7604 12.5658C14.4004 12.6013 14.0528 12.7162 13.7426 12.9022C13.4323 13.0881 13.1672 13.3406 12.9662 13.6413C12.7653 13.9421 12.6335 14.2836 12.5804 14.6414C12.5272 14.9992 12.5541 15.3643 12.659 15.7104C12.764 16.0566 12.9443 16.3752 13.1872 16.6432C13.43 16.9113 13.7292 17.1222 14.0634 17.2607ZM12.3347 12.3347C12.6847 11.9847 13.1002 11.7071 13.5576 11.5177C14.0149 11.3282 14.505 11.2307 15 11.2307C15.495 11.2307 15.9852 11.3282 16.4425 11.5177C16.8998 11.7071 17.3153 11.9847 17.6654 12.3347C18.0154 12.6848 18.293 13.1003 18.4824 13.5576C18.6719 14.0149 18.7694 14.5051 18.7694 15.0001C18.7694 15.4951 18.6719 15.9852 18.4824 16.4425C18.293 16.8999 18.0154 17.3154 17.6654 17.6654C16.9585 18.3723 15.9997 18.7694 15 18.7694C14.0003 18.7694 13.0416 18.3723 12.3347 17.6654C11.6278 16.9585 11.2307 15.9998 11.2307 15.0001C11.2307 14.0004 11.6278 13.0416 12.3347 12.3347ZM19.6054 11.7921C19.6921 11.7103 19.7615 11.6119 19.8096 11.5027C19.8576 11.3936 19.8832 11.2759 19.885 11.1567C19.8867 11.0375 19.8645 10.9191 19.8197 10.8086C19.7748 10.6981 19.7083 10.5978 19.624 10.5134C19.5397 10.4291 19.4393 10.3626 19.3288 10.3178C19.2183 10.2729 19.1 10.2507 18.9807 10.2525C18.8615 10.2542 18.7438 10.2799 18.6347 10.3279C18.5256 10.3759 18.4272 10.4453 18.3454 10.5321C18.1862 10.7008 18.0991 10.9248 18.1025 11.1567C18.1059 11.3886 18.1995 11.61 18.3635 11.774C18.5274 11.938 18.7489 12.0316 18.9807 12.0349C19.2126 12.0383 19.4367 11.9512 19.6054 11.7921Z" fill="white"/>
</svg>
