<svg width="186" height="31" viewBox="0 0 186 31" fill="none" xmlns="http://www.w3.org/2000/svg">
<g clip-path="url(#clip0)">
<path d="M44.5405 18.5544C44.5405 18.6823 44.6441 18.7859 44.7719 18.7859H46.8221C48.63 18.7859 50.0957 20.2515 50.0957 22.0595V22.0595H41.8497C40.9936 22.0595 40.2997 21.3655 40.2997 20.5095V4.6499V4.6499C42.6418 4.6499 44.5405 6.54857 44.5405 8.8907V18.5544Z" fill="white"/>
<path d="M51.8547 15.1155C51.8547 13.6936 52.1193 12.4454 52.6483 11.3707C53.1939 10.296 53.9297 9.46937 54.8555 8.89071C55.7814 8.31204 56.8147 8.02271 57.9555 8.02271C58.931 8.02271 59.7825 8.2211 60.5099 8.6179C61.2539 9.01471 61.8243 9.53551 62.2211 10.1803V8.22111H66.4619V22.0595H62.2211V20.1003C61.8078 20.7451 61.2291 21.2659 60.4851 21.6627C59.7577 22.0595 58.9062 22.2579 57.9307 22.2579C56.8065 22.2579 55.7814 21.9686 54.8555 21.3899C53.9297 20.7947 53.1939 19.9598 52.6483 18.8851C52.1193 17.7939 51.8547 16.5374 51.8547 15.1155ZM62.2211 15.1403C62.2211 14.0822 61.9235 13.2472 61.3283 12.6355C60.7497 12.0238 60.0387 11.7179 59.1955 11.7179C58.3523 11.7179 57.6331 12.0238 57.0379 12.6355C56.4593 13.2307 56.1699 14.0574 56.1699 15.1155C56.1699 16.1736 56.4593 17.0168 57.0379 17.6451C57.6331 18.2568 58.3523 18.5627 59.1955 18.5627C60.0387 18.5627 60.7497 18.2568 61.3283 17.6451C61.9235 17.0334 62.2211 16.1984 62.2211 15.1403Z" fill="white"/>
<path d="M73.9902 10.1803C74.4035 9.53551 74.9739 9.01471 75.7014 8.6179C76.4288 8.2211 77.2803 8.02271 78.2558 8.02271C79.3966 8.02271 80.4299 8.31204 81.3558 8.89071C82.2816 9.46937 83.0091 10.296 83.5382 11.3707C84.0838 12.4454 84.3566 13.6936 84.3566 15.1155C84.3566 16.5374 84.0838 17.7939 83.5382 18.8851C83.0091 19.9598 82.2816 20.7947 81.3558 21.3899C80.4299 21.9686 79.3966 22.2579 78.2558 22.2579C77.2968 22.2579 76.4454 22.0595 75.7014 21.6627C74.9739 21.2659 74.4035 20.7534 73.9902 20.1251V22.4686C73.9902 24.8107 72.0915 26.7094 69.7494 26.7094V26.7094V8.22111H73.9902V10.1803ZM80.0414 15.1155C80.0414 14.0574 79.7438 13.2307 79.1486 12.6355C78.5699 12.0238 77.8507 11.7179 76.991 11.7179C76.1478 11.7179 75.4286 12.0238 74.8334 12.6355C74.2547 13.2472 73.9654 14.0822 73.9654 15.1403C73.9654 16.1984 74.2547 17.0334 74.8334 17.6451C75.4286 18.2568 76.1478 18.5627 76.991 18.5627C77.8342 18.5627 78.5534 18.2568 79.1486 17.6451C79.7438 17.0168 80.0414 16.1736 80.0414 15.1155Z" fill="white"/>
<path d="M85.9547 15.1155C85.9547 13.6936 86.2193 12.4454 86.7483 11.3707C87.2939 10.296 88.0297 9.46937 88.9555 8.89071C89.8814 8.31204 90.9147 8.02271 92.0555 8.02271C93.031 8.02271 93.8825 8.2211 94.6099 8.6179C95.3539 9.01471 95.9243 9.53551 96.3211 10.1803V8.22111H100.562V22.0595H96.3211V20.1003C95.9078 20.7451 95.3291 21.2659 94.5851 21.6627C93.8577 22.0595 93.0062 22.2579 92.0307 22.2579C90.9065 22.2579 89.8814 21.9686 88.9555 21.3899C88.0297 20.7947 87.2939 19.9598 86.7483 18.8851C86.2193 17.7939 85.9547 16.5374 85.9547 15.1155ZM96.3211 15.1403C96.3211 14.0822 96.0235 13.2472 95.4283 12.6355C94.8497 12.0238 94.1387 11.7179 93.2955 11.7179C92.4523 11.7179 91.7331 12.0238 91.1379 12.6355C90.5593 13.2307 90.2699 14.0574 90.2699 15.1155C90.2699 16.1736 90.5593 17.0168 91.1379 17.6451C91.7331 18.2568 92.4523 18.5627 93.2955 18.5627C94.1387 18.5627 94.8497 18.2568 95.4283 17.6451C96.0235 17.0334 96.3211 16.1984 96.3211 15.1403Z" fill="white"/>
<path d="M112.281 8.07227C113.902 8.07227 115.191 8.60133 116.15 9.65947C117.126 10.7011 117.613 12.1395 117.613 13.9747V22.0595H113.397V14.5451C113.397 13.6192 113.158 12.9 112.678 12.3875C112.199 11.8749 111.554 11.6187 110.744 11.6187C109.934 11.6187 109.289 11.8749 108.809 12.3875C108.33 12.9 108.09 13.6192 108.09 14.5451V22.0595H103.849V8.22107H108.09V10.0563C108.52 9.44453 109.099 8.96506 109.826 8.61786C110.554 8.25413 111.372 8.07227 112.281 8.07227Z" fill="white"/>
<path d="M130.784 4.6499C132.66 4.6499 134.181 6.17106 134.181 8.0475V8.0475H130.646C130.051 8.0475 129.569 8.53007 129.569 9.12535V17.8187C129.569 20.1608 127.67 22.0595 125.328 22.0595V22.0595V8.40233C125.328 8.20637 125.169 8.0475 124.973 8.0475H124.113C122.236 8.0475 120.715 6.52634 120.715 4.6499V4.6499H130.784Z" fill="white"/>
<path d="M135.762 14.9171C135.762 15.3139 135.787 15.7272 135.836 16.1571H145.434C145.368 17.0168 145.095 17.6782 144.615 18.1411C144.119 18.5875 143.516 18.8107 142.805 18.8107C141.747 18.8107 141.011 18.3643 140.598 17.4715H136.084C136.316 18.3808 136.737 19.1992 137.349 19.9267C137.944 20.6542 138.696 21.2246 139.606 21.6379C140.515 22.0512 141.532 22.2579 142.656 22.2579C144.012 22.2579 145.219 21.9686 146.277 21.3899C147.335 20.8112 148.162 19.9846 148.757 18.9099C149.352 17.8352 149.65 16.5787 149.65 15.1403C149.65 13.7019 149.36 12.4454 148.782 11.3707C148.187 10.296 147.36 9.46937 146.302 8.89071C145.244 8.31204 144.028 8.02271 142.656 8.02271C141.317 8.02271 140.127 8.30377 139.085 8.86591C138.043 9.42804 137.233 10.2299 136.655 11.2715C136.059 12.3131 135.762 13.5283 135.762 14.9171ZM140.102 13.8011C140.102 13.0736 140.35 12.495 140.846 12.0651C141.342 11.6352 141.962 11.4203 142.706 11.4203C143.417 11.4203 144.02 11.627 144.516 12.0403C144.996 12.4536 145.293 13.0406 145.409 13.8011H140.102Z" fill="white"/>
<path d="M151.038 15.1403C151.038 13.7019 151.327 12.4454 151.906 11.3707C152.501 10.296 153.319 9.46937 154.361 8.89071C155.419 8.31204 156.626 8.02271 157.982 8.02271C159.718 8.02271 161.164 8.47737 162.322 9.38671C163.496 10.296 164.264 11.5774 164.628 13.2307H160.114C159.734 12.1726 158.998 11.6435 157.907 11.6435C157.13 11.6435 156.51 11.9494 156.047 12.5611C155.584 13.1563 155.353 14.016 155.353 15.1403C155.353 16.2646 155.584 17.1326 156.047 17.7443C156.51 18.3395 157.13 18.6371 157.907 18.6371C158.998 18.6371 159.734 18.108 160.114 17.0499H164.628C164.264 18.6702 163.496 19.9432 162.322 20.8691C161.148 21.795 159.701 22.2579 157.982 22.2579C156.626 22.2579 155.419 21.9686 154.361 21.3899C153.319 20.8112 152.501 19.9846 151.906 18.9099C151.327 17.8352 151.038 16.5787 151.038 15.1403Z" fill="white"/>
<path d="M175.901 10.9241C177.488 10.9241 178.761 11.4531 179.72 12.5113C180.679 13.5529 181.158 14.9913 181.158 16.8265V21.6718H176.942V17.3969C176.942 16.471 176.703 15.7518 176.223 15.2393C175.744 14.7267 175.099 14.4705 174.289 14.4705C173.479 14.4705 172.834 14.7267 172.354 15.2393C171.875 15.7518 171.635 16.471 171.635 17.3969V21.6718H167.394V5.00928V5.00928C169.737 5.00928 171.635 6.90795 171.635 9.25008V12.9329C172.065 12.3211 172.652 11.8334 173.396 11.4697C174.14 11.1059 174.975 10.9241 175.901 10.9241Z" fill="white"/>
<path d="M184.458 21.6999C184 21.6999 183.623 21.5554 183.328 21.2665C183.043 20.9665 182.9 20.5999 182.9 20.1665C182.9 19.7221 183.043 19.3499 183.328 19.0499C183.623 18.7499 184 18.5999 184.458 18.5999C184.906 18.5999 185.273 18.7499 185.558 19.0499C185.853 19.3499 186 19.7221 186 20.1665C186 20.5999 185.853 20.9665 185.558 21.2665C185.273 21.5554 184.906 21.6999 184.458 21.6999Z" fill="white"/>
</g>
<path d="M15.7715 20.801C15.6729 20.9185 15.4977 20.9339 15.3802 20.8353L8.24321 14.8466C6.00049 12.9648 2.65686 13.2573 0.774994 15.5L14.1328 26.7086C14.7886 27.2588 15.7663 27.1733 16.3165 26.5175L23.1911 18.3247C21.4599 16.872 18.8789 17.0978 17.4262 18.829L15.7715 20.801Z" fill="white"/>
<path d="M15.0454 9.30648C15.144 9.18897 15.3192 9.17364 15.4367 9.27225L22.5737 15.2609C24.8164 17.1428 28.16 16.8502 30.0419 14.6075L16.684 3.39894C16.0283 2.84869 15.0506 2.93422 14.5004 3.58999L7.62575 11.7828C9.35697 13.2355 11.938 13.0097 13.3907 11.2785L15.0454 9.30648Z" fill="white"/>
<defs>
<clipPath id="clip0">
<rect width="145.7" height="23.25" fill="white" transform="translate(40.3 3.875)"/>
</clipPath>
</defs>
</svg>
