<svg width="100" height="100" viewBox="0 0 100 100" fill="none" xmlns="http://www.w3.org/2000/svg">
<circle cx="50" cy="50" r="50" fill="#0561B7"/>
<path d="M37.0226 49.0574L50.0001 38.6175L62.9776 49.4441C63.406 49.7991 63.9438 49.9955 64.5001 50C64.8552 50.0005 65.206 49.9229 65.5276 49.7725C65.8492 49.6221 66.1338 49.4028 66.361 49.13C66.5645 48.8858 66.7178 48.6038 66.8121 48.3003C66.9065 47.9967 66.94 47.6775 66.9109 47.361C66.8817 47.0445 66.7903 46.7368 66.6421 46.4557C66.4938 46.1745 66.2915 45.9253 66.0468 45.7224L51.5468 33.6391C51.1144 33.2837 50.572 33.0894 50.0122 33.0894C49.4525 33.0894 48.9101 33.2837 48.4776 33.6391L33.9776 45.3116C33.7294 45.511 33.523 45.7576 33.3703 46.037C33.2176 46.3165 33.1217 46.6234 33.088 46.94C33.0543 47.2567 33.0836 47.5769 33.174 47.8822C33.2645 48.1875 33.4144 48.4719 33.6151 48.7191C33.8163 48.9656 34.0641 49.1699 34.3445 49.3204C34.6248 49.4709 34.932 49.5645 35.2486 49.5959C35.5652 49.6274 35.8849 49.596 36.1893 49.5036C36.4937 49.4112 36.7769 49.2596 37.0226 49.0574Z" fill="white"/>
<path d="M51.5468 50.5556C51.1144 50.2002 50.572 50.0059 50.0122 50.0059C49.4525 50.0059 48.9101 50.2002 48.4776 50.5556L33.9776 62.2281C33.7294 62.4276 33.523 62.6741 33.3703 62.9535C33.2176 63.233 33.1217 63.5399 33.088 63.8565C33.0543 64.1732 33.0836 64.4934 33.174 64.7987C33.2645 65.104 33.4144 65.3884 33.6151 65.6356C33.8146 65.8839 34.0611 66.0903 34.3405 66.2429C34.62 66.3956 34.9269 66.4916 35.2435 66.5252C35.5602 66.5589 35.8804 66.5297 36.1857 66.4392C36.491 66.3488 36.7754 66.1989 37.0226 65.9981L50.0001 55.534L62.9776 66.3606C63.406 66.7156 63.9438 66.912 64.5001 66.9165C64.8552 66.917 65.206 66.8394 65.5276 66.689C65.8492 66.5386 66.1338 66.3193 66.361 66.0465C66.5645 65.8023 66.7178 65.5203 66.8121 65.2168C66.9065 64.9132 66.94 64.5941 66.9109 64.2775C66.8817 63.961 66.7903 63.6533 66.6421 63.3722C66.4938 63.091 66.2915 62.8418 66.0468 62.639L51.5468 50.5556Z" fill="white"/>
</svg>
