<svg width="68" height="68" viewBox="0 0 68 68" fill="none" xmlns="http://www.w3.org/2000/svg">
<g filter="url(#filter0_d)">
<rect x="4.5" y="0.5" width="59" height="59" rx="29.5" fill="url(#paint0_linear)" stroke="#3497F1"/>
<path d="M25 17H47V19H25V17Z" fill="white"/>
<path d="M23 17H21V19H23V17Z" fill="white"/>
<path fill-rule="evenodd" clip-rule="evenodd" d="M16 14C16 13.4477 16.4477 13 17 13H51C51.5523 13 52 13.4477 52 14V22C52 22.5523 51.5523 23 51 23H17C16.4477 23 16 22.5523 16 22V14ZM17.5 21.5V14.5H50.5V21.5H17.5Z" fill="white"/>
<path d="M25 29H47V31H25V29Z" fill="white"/>
<path d="M23 29H21V31H23V29Z" fill="white"/>
<path fill-rule="evenodd" clip-rule="evenodd" d="M17 25C16.4477 25 16 25.4477 16 26V34C16 34.5523 16.4477 35 17 35H51C51.5523 35 52 34.5523 52 34V26C52 25.4477 51.5523 25 51 25H17ZM17.5 26.5V33.5H50.5V26.5H17.5Z" fill="white"/>
<path d="M25 41H47V43H25V41Z" fill="white"/>
<path d="M23 41H21V43H23V41Z" fill="white"/>
<path fill-rule="evenodd" clip-rule="evenodd" d="M17 37C16.4477 37 16 37.4477 16 38V46C16 46.5523 16.4477 47 17 47H51C51.5523 47 52 46.5523 52 46V38C52 37.4477 51.5523 37 51 37H17ZM17.5 38.5V45.5H50.5V38.5H17.5Z" fill="white"/>
</g>
<defs>
<filter id="filter0_d" x="0" y="0" width="68" height="68" filterUnits="userSpaceOnUse" color-interpolation-filters="sRGB">
<feFlood flood-opacity="0" result="BackgroundImageFix"/>
<feColorMatrix in="SourceAlpha" type="matrix" values="0 0 0 0 0 0 0 0 0 0 0 0 0 0 0 0 0 0 127 0"/>
<feOffset dy="4"/>
<feGaussianBlur stdDeviation="2"/>
<feColorMatrix type="matrix" values="0 0 0 0 0.172549 0 0 0 0 0.482353 0 0 0 0 0.94902 0 0 0 0.25 0"/>
<feBlend mode="normal" in2="BackgroundImageFix" result="effect1_dropShadow"/>
<feBlend mode="normal" in="SourceGraphic" in2="effect1_dropShadow" result="shape"/>
</filter>
<linearGradient id="paint0_linear" x1="13" y1="53.25" x2="54.25" y2="9.375" gradientUnits="userSpaceOnUse">
<stop stop-color="#318FEF"/>
<stop offset="1" stop-color="#40C0FA"/>
</linearGradient>
</defs>
</svg>
