<svg width="30" height="30" viewBox="0 0 30 30" fill="none" xmlns="http://www.w3.org/2000/svg">
<rect width="30" height="30" rx="15" fill="#0069FF"/>
<path d="M22.7618 10.2912C22.2052 10.5379 21.6072 10.7046 20.9785 10.7799C21.6272 10.3918 22.1125 9.78087 22.3438 9.06122C21.7344 9.42321 21.0674 9.67802 20.3718 9.81456C19.9041 9.31513 19.2846 8.98411 18.6094 8.87287C17.9342 8.76164 17.2412 8.87642 16.638 9.19939C16.0348 9.52236 15.555 10.0355 15.2733 10.659C14.9915 11.2826 14.9235 11.9817 15.0798 12.6479C13.845 12.5859 12.6369 12.2649 11.5341 11.7058C10.4313 11.1467 9.45841 10.362 8.67851 9.40256C8.41184 9.86256 8.25851 10.3959 8.25851 10.9639C8.25821 11.4752 8.38413 11.9787 8.6251 12.4297C8.86606 12.8807 9.21462 13.2652 9.63985 13.5492C9.1467 13.5335 8.66443 13.4003 8.23318 13.1606V13.2006C8.23313 13.9177 8.4812 14.6128 8.9353 15.1679C9.3894 15.723 10.0216 16.1038 10.7245 16.2459C10.267 16.3697 9.7874 16.3879 9.32185 16.2992C9.52018 16.9163 9.90651 17.4559 10.4268 17.8425C10.947 18.2291 11.5751 18.4433 12.2232 18.4552C11.1231 19.3188 9.76444 19.7873 8.36585 19.7852C8.1181 19.7853 7.87056 19.7708 7.62451 19.7419C9.04416 20.6547 10.6967 21.1391 12.3845 21.1372C18.0978 21.1372 21.2212 16.4052 21.2212 12.3012C21.2212 12.1679 21.2178 12.0332 21.2118 11.8999C21.8194 11.4605 22.3438 10.9165 22.7605 10.2932L22.7618 10.2912Z" fill="white"/>
</svg>
