<svg width="68" height="68" viewBox="0 0 68 68" fill="none" xmlns="http://www.w3.org/2000/svg">
<g filter="url(#filter0_d)">
<rect x="4.5" y="0.5" width="59" height="59" rx="29.5" fill="url(#paint0_linear)" stroke="#6E31EF"/>
<path d="M48.25 17.4369L48.25 36C48.25 36.232 48.1539 36.5538 47.8871 36.9749C47.6238 37.3903 47.2274 37.8503 46.7116 38.3433C45.68 39.3292 44.2504 40.3726 42.6924 41.3767C39.5823 43.3813 36.0721 45.1589 34.504 45.9256C34.2915 46.0295 34.1765 46.0849 34.0869 46.1189C34.0478 46.1338 34.0261 46.1394 34.0153 46.1417C34.0064 46.1436 34.0028 46.1437 34.0001 46.1437C33.9973 46.1437 33.9937 46.1436 33.9848 46.1417C33.974 46.1394 33.9524 46.1338 33.9133 46.1189C33.8237 46.0849 33.7086 46.0295 33.4961 45.9256C31.9281 45.1589 28.4179 43.3813 25.3078 41.3767C23.7499 40.3726 22.3203 39.3292 21.2887 38.3433C20.7729 37.8503 20.3764 37.3903 20.1132 36.9749C19.8463 36.5538 19.7502 36.2319 19.7502 36C19.7499 30.4151 19.75 21.0108 19.7501 17.4368C19.7501 17.0721 19.7514 16.8643 19.7695 16.7124C19.7776 16.6444 19.7871 16.6097 19.7926 16.5935C19.7966 16.582 19.7987 16.5794 19.7994 16.5785C19.7994 16.5785 19.7995 16.5784 19.7995 16.5784C19.7996 16.5783 19.7997 16.5782 19.7997 16.5781C19.801 16.5763 19.8032 16.5734 19.8127 16.5665C19.8259 16.5569 19.8553 16.5385 19.916 16.5118C20.0526 16.452 20.2462 16.3924 20.5898 16.289C23.355 15.4571 29.5841 13.75 33.9998 13.75C38.4155 13.75 44.6449 15.4571 47.4103 16.289C47.7539 16.3924 47.9475 16.452 48.0841 16.5119C48.1449 16.5385 48.1742 16.5569 48.1874 16.5665C48.197 16.5734 48.1991 16.5763 48.2004 16.5781L48.2006 16.5784L48.2008 16.5786C48.2014 16.5794 48.2035 16.582 48.2075 16.5935C48.2131 16.6097 48.2225 16.6444 48.2306 16.7124C48.2488 16.8643 48.25 17.0721 48.25 17.4369Z" stroke="white" stroke-width="1.5" stroke-linejoin="round"/>
<path d="M30.8526 25.3495L28.4937 32H26.4663L24.1074 25.3495H25.8316L27.48 30.3705L29.1379 25.3495H30.8526ZM36.5981 27.4905C36.5981 27.8758 36.5097 28.2295 36.3329 28.5516C36.156 28.8674 35.8844 29.1232 35.5181 29.3189C35.1518 29.5147 34.6971 29.6126 34.1539 29.6126H33.1497V32H31.5297V25.3495H34.1539C34.6844 25.3495 35.1329 25.4411 35.4992 25.6242C35.8655 25.8074 36.1402 26.06 36.3234 26.3821C36.5065 26.7042 36.5981 27.0737 36.5981 27.4905ZM34.0308 28.3242C34.3402 28.3242 34.5708 28.2516 34.7223 28.1063C34.8739 27.9611 34.9497 27.7558 34.9497 27.4905C34.9497 27.2253 34.8739 27.02 34.7223 26.8747C34.5708 26.7295 34.3402 26.6568 34.0308 26.6568H33.1497V28.3242H34.0308ZM43.391 32H41.771L39.0615 27.8979V32H37.4415V25.3495H39.0615L41.771 29.4705V25.3495H43.391V32Z" fill="white"/>
</g>
<defs>
<filter id="filter0_d" x="0" y="0" width="68" height="68" filterUnits="userSpaceOnUse" color-interpolation-filters="sRGB">
<feFlood flood-opacity="0" result="BackgroundImageFix"/>
<feColorMatrix in="SourceAlpha" type="matrix" values="0 0 0 0 0 0 0 0 0 0 0 0 0 0 0 0 0 0 127 0"/>
<feOffset dy="4"/>
<feGaussianBlur stdDeviation="2"/>
<feColorMatrix type="matrix" values="0 0 0 0 0.431373 0 0 0 0 0.192157 0 0 0 0 0.937255 0 0 0 0.25 0"/>
<feBlend mode="normal" in2="BackgroundImageFix" result="effect1_dropShadow"/>
<feBlend mode="normal" in="SourceGraphic" in2="effect1_dropShadow" result="shape"/>
</filter>
<linearGradient id="paint0_linear" x1="13" y1="53.25" x2="54.25" y2="9.375" gradientUnits="userSpaceOnUse">
<stop stop-color="#6E31EF"/>
<stop offset="1" stop-color="#FA40F3"/>
</linearGradient>
</defs>
</svg>
