<svg width="100" height="100" viewBox="0 0 100 100" fill="none" xmlns="http://www.w3.org/2000/svg">
<circle cx="50" cy="50" r="50" fill="#02B84A"/>
<path d="M69.7201 37.5297C62.7601 26.7997 48.5501 23.6097 37.5301 30.2797C26.8001 36.9497 23.3201 51.4497 30.2801 62.1797L30.8601 63.0497L28.5401 71.7497L37.2401 69.4297L38.1101 70.0097C41.8801 72.0397 45.9401 73.1997 50.0001 73.1997C54.3501 73.1997 58.7001 72.0397 62.4701 69.7197C73.2001 62.7597 76.3901 48.5497 69.7201 37.5297ZM63.6301 59.8597C62.4701 61.5997 61.0201 62.7597 58.9901 63.0497C57.8301 63.0497 56.3801 63.6297 50.5801 61.3097C45.6501 58.9897 41.5901 55.2197 38.6901 50.8697C36.9501 48.8397 36.0801 46.2297 35.7901 43.6197C35.7901 41.2997 36.6601 39.2697 38.1101 37.8197C38.6901 37.2397 39.2701 36.9497 39.8501 36.9497H41.3001C41.8801 36.9497 42.4601 36.9497 42.7501 38.1097C43.3301 39.5597 44.7801 43.0397 44.7801 43.3297C45.0701 43.6197 45.0701 44.1997 44.7801 44.4897C45.0701 45.0697 44.7801 45.6497 44.4901 45.9397C44.2001 46.2297 43.9101 46.8097 43.6201 47.0997C43.0401 47.3897 42.7501 47.9697 43.0401 48.5497C44.2001 50.2897 45.6501 52.0297 47.1001 53.4797C48.8401 54.9297 50.5801 56.0897 52.6101 56.9597C53.1901 57.2497 53.7701 57.2497 54.0601 56.6697C54.3501 56.0897 55.8001 54.6397 56.3801 54.0597C56.9601 53.4797 57.2501 53.4797 57.8301 53.7697L62.4701 56.0897C63.0501 56.3797 63.6301 56.6697 63.9201 56.9597C64.2101 57.8297 64.2101 58.9897 63.6301 59.8597Z" fill="white"/>
</svg>
